<?xml version="1.0" encoding="UTF-8" standalone="no"?>
<!DOCTYPE svg PUBLIC "-//W3C//DTD SVG 1.1//EN"
 "http://www.w3.org/Graphics/SVG/1.1/DTD/svg11.dtd">
<!-- Generated by graphviz version 2.38.0 (20140413.2041)
 -->
<!-- Title: dependencies Pages: 1 -->
<svg width="1338pt" height="764pt"
 viewBox="0.00 0.00 1337.98 764.00" xmlns="http://www.w3.org/2000/svg" xmlns:xlink="http://www.w3.org/1999/xlink">
<g id="graph0" class="graph" transform="scale(1 1) rotate(0) translate(4 760)">
<title>dependencies</title>
<polygon fill="white" stroke="none" points="-4,4 -4,-760 1333.98,-760 1333.98,4 -4,4"/>
<!-- N0 -->
<g id="node1" class="node"><title>N0</title>
<ellipse fill="none" stroke="black" cx="835.976" cy="-738" rx="34.394" ry="18"/>
<text text-anchor="middle" x="835.976" y="-734.3" font-family="Times,serif" font-size="14.00">octavo</text>
</g>
<!-- N1 -->
<g id="node2" class="node"><title>N1</title>
<ellipse fill="none" stroke="orange" cx="661.976" cy="-522" rx="59.5901" ry="18"/>
<text text-anchor="middle" x="661.976" y="-518.3" font-family="Times,serif" font-size="14.00">octavo&#45;crypto</text>
</g>
<!-- N0&#45;&gt;N1 -->
<g id="edge1" class="edge"><title>N0&#45;&gt;N1</title>
<path fill="none" stroke="black" stroke-dasharray="5,2" d="M812.299,-724.825C777.662,-705.719 713.747,-665.304 680.976,-612 669.563,-593.436 664.933,-569.04 663.09,-550.485"/>
<polygon fill="black" stroke="black" points="666.564,-550.021 662.296,-540.324 659.585,-550.566 666.564,-550.021"/>
</g>
<!-- N2 -->
<g id="node3" class="node"><title>N2</title>
<ellipse fill="none" stroke="orange" cx="901.976" cy="-594" rx="57.6901" ry="18"/>
<text text-anchor="middle" x="901.976" y="-590.3" font-family="Times,serif" font-size="14.00">octavo&#45;digest</text>
</g>
<!-- N0&#45;&gt;N2 -->
<g id="edge2" class="edge"><title>N0&#45;&gt;N2</title>
<path fill="none" stroke="black" stroke-dasharray="5,2" d="M843.677,-720.433C855.041,-695.981 876.411,-650.004 889.881,-621.023"/>
<polygon fill="black" stroke="black" points="893.08,-622.445 894.121,-611.902 886.732,-619.495 893.08,-622.445"/>
</g>
<!-- N3 -->
<g id="node4" class="node"><title>N3</title>
<ellipse fill="none" stroke="orange" cx="738.976" cy="-594" rx="48.9926" ry="18"/>
<text text-anchor="middle" x="738.976" y="-590.3" font-family="Times,serif" font-size="14.00">octavo&#45;kdf</text>
</g>
<!-- N0&#45;&gt;N3 -->
<g id="edge3" class="edge"><title>N0&#45;&gt;N3</title>
<path fill="none" stroke="black" stroke-dasharray="5,2" d="M824.849,-720.711C807.983,-696.019 775.815,-648.929 755.996,-619.916"/>
<polygon fill="black" stroke="black" points="758.803,-617.82 750.273,-611.537 753.023,-621.768 758.803,-617.82"/>
</g>
<!-- N4 -->
<g id="node5" class="node"><title>N4</title>
<ellipse fill="none" stroke="orange" cx="1069.98" cy="-666" rx="51.9908" ry="18"/>
<text text-anchor="middle" x="1069.98" y="-662.3" font-family="Times,serif" font-size="14.00">octavo&#45;mac</text>
</g>
<!-- N0&#45;&gt;N4 -->
<g id="edge4" class="edge"><title>N0&#45;&gt;N4</title>
<path fill="none" stroke="black" stroke-dasharray="5,2" d="M865.14,-728.276C904.486,-716.506 975.065,-695.392 1022.21,-681.288"/>
<polygon fill="black" stroke="black" points="1023.32,-684.61 1031.9,-678.39 1021.32,-677.903 1023.32,-684.61"/>
</g>
<!-- N7 -->
<g id="node8" class="node"><title>N7</title>
<ellipse fill="none" stroke="orange" cx="749.976" cy="-450" rx="44.393" ry="18"/>
<text text-anchor="middle" x="749.976" y="-446.3" font-family="Times,serif" font-size="14.00">byteorder</text>
</g>
<!-- N1&#45;&gt;N7 -->
<g id="edge5" class="edge"><title>N1&#45;&gt;N7</title>
<path fill="none" stroke="black" stroke-dasharray="5,2" d="M682.387,-504.765C694.299,-495.289 709.486,-483.209 722.445,-472.9"/>
<polygon fill="black" stroke="black" points="724.936,-475.391 730.583,-466.427 720.578,-469.913 724.936,-475.391"/>
</g>
<!-- N9 -->
<g id="node10" class="node"><title>N9</title>
<ellipse fill="none" stroke="orange" cx="977.976" cy="-450" rx="57.6901" ry="18"/>
<text text-anchor="middle" x="977.976" y="-446.3" font-family="Times,serif" font-size="14.00">generic&#45;array</text>
</g>
<!-- N1&#45;&gt;N9 -->
<g id="edge6" class="edge"><title>N1&#45;&gt;N9</title>
<path fill="none" stroke="black" stroke-dasharray="5,2" d="M708.603,-510.671C765.523,-498.062 861.679,-476.762 922.389,-463.314"/>
<polygon fill="black" stroke="black" points="923.179,-466.724 932.186,-461.144 921.665,-459.889 923.179,-466.724"/>
</g>
<!-- N10 -->
<g id="node11" class="node"><title>N10</title>
<ellipse fill="none" stroke="orange" cx="1031.98" cy="-378" rx="42.4939" ry="18"/>
<text text-anchor="middle" x="1031.98" y="-374.3" font-family="Times,serif" font-size="14.00">typenum</text>
</g>
<!-- N1&#45;&gt;N10 -->
<g id="edge7" class="edge"><title>N1&#45;&gt;N10</title>
<path fill="none" stroke="black" stroke-dasharray="5,2" d="M699.439,-507.934C728.059,-497.708 768.343,-482.787 802.976,-468 836.981,-453.481 843.771,-446.04 877.976,-432 888.662,-427.614 948.447,-407.235 990.3,-393.065"/>
<polygon fill="black" stroke="black" points="991.634,-396.309 999.985,-389.789 989.391,-389.678 991.634,-396.309"/>
</g>
<!-- N15 -->
<g id="node16" class="node"><title>N15</title>
<ellipse fill="none" stroke="orange" cx="177.976" cy="-450" rx="50.0912" ry="18"/>
<text text-anchor="middle" x="177.976" y="-446.3" font-family="Times,serif" font-size="14.00">num&#45;bigint</text>
</g>
<!-- N1&#45;&gt;N15 -->
<g id="edge8" class="edge"><title>N1&#45;&gt;N15</title>
<path fill="none" stroke="black" stroke-dasharray="5,2" d="M607.349,-514.58C531.159,-505.414 388.746,-487.515 267.976,-468 255.958,-466.058 243.078,-463.757 230.927,-461.485"/>
<polygon fill="black" stroke="black" points="231.404,-458.014 220.927,-459.593 230.102,-464.891 231.404,-458.014"/>
</g>
<!-- N16 -->
<g id="node17" class="node"><title>N16</title>
<ellipse fill="none" stroke="orange" cx="259.976" cy="-378" rx="53.8905" ry="18"/>
<text text-anchor="middle" x="259.976" y="-374.3" font-family="Times,serif" font-size="14.00">num&#45;integer</text>
</g>
<!-- N1&#45;&gt;N16 -->
<g id="edge9" class="edge"><title>N1&#45;&gt;N16</title>
<path fill="none" stroke="black" stroke-dasharray="5,2" d="M604.178,-517C521.269,-510.402 373.545,-495.183 327.976,-468 303.068,-453.141 284.101,-425.384 272.607,-404.803"/>
<polygon fill="black" stroke="black" points="275.661,-403.091 267.858,-395.924 269.489,-406.393 275.661,-403.091"/>
</g>
<!-- N17 -->
<g id="node18" class="node"><title>N17</title>
<ellipse fill="none" stroke="orange" cx="259.976" cy="-306" rx="47.3916" ry="18"/>
<text text-anchor="middle" x="259.976" y="-302.3" font-family="Times,serif" font-size="14.00">num&#45;traits</text>
</g>
<!-- N1&#45;&gt;N17 -->
<g id="edge10" class="edge"><title>N1&#45;&gt;N17</title>
<path fill="none" stroke="black" stroke-dasharray="5,2" d="M604.073,-517.244C528.487,-511.247 401.619,-497.091 365.976,-468 325.951,-435.332 353.212,-401.894 322.976,-360 314.226,-347.876 302.108,-336.81 290.834,-327.963"/>
<polygon fill="black" stroke="black" points="292.927,-325.157 282.836,-321.929 288.711,-330.745 292.927,-325.157"/>
</g>
<!-- N18 -->
<g id="node19" class="node"><title>N18</title>
<ellipse fill="none" stroke="orange" cx="1026.98" cy="-18" rx="27" ry="18"/>
<text text-anchor="middle" x="1026.98" y="-14.3" font-family="Times,serif" font-size="14.00">rand</text>
</g>
<!-- N1&#45;&gt;N18 -->
<g id="edge11" class="edge"><title>N1&#45;&gt;N18</title>
<path fill="none" stroke="black" stroke-dasharray="5,2" d="M604.229,-517.199C521.726,-508.283 379.976,-478.489 379.976,-379 379.976,-379 379.976,-379 379.976,-161 379.976,-35.1902 852.603,-20.7068 989.961,-19.1542"/>
<polygon fill="black" stroke="black" points="990.034,-22.6537 999.999,-19.0574 989.966,-15.6541 990.034,-22.6537"/>
</g>
<!-- N2&#45;&gt;N7 -->
<g id="edge12" class="edge"><title>N2&#45;&gt;N7</title>
<path fill="none" stroke="black" stroke-dasharray="5,2" d="M890.825,-576.304C877.692,-557.399 854.534,-526.327 829.976,-504 816.093,-491.378 798.941,-479.603 784.084,-470.374"/>
<polygon fill="black" stroke="black" points="785.545,-467.167 775.18,-464.972 781.914,-473.151 785.545,-467.167"/>
</g>
<!-- N2&#45;&gt;N9 -->
<g id="edge13" class="edge"><title>N2&#45;&gt;N9</title>
<path fill="none" stroke="black" stroke-dasharray="5,2" d="M910.993,-576.153C924.134,-551.6 948.661,-505.773 964.11,-476.908"/>
<polygon fill="black" stroke="black" points="967.339,-478.293 968.972,-467.825 961.167,-474.99 967.339,-478.293"/>
</g>
<!-- N2&#45;&gt;N10 -->
<g id="edge14" class="edge"><title>N2&#45;&gt;N10</title>
<path fill="none" stroke="black" stroke-dasharray="5,2" d="M897.58,-575.875C890.533,-544.282 880.401,-476.037 910.976,-432 915.991,-424.777 958.422,-407.188 991.64,-394.244"/>
<polygon fill="black" stroke="black" points="993.099,-397.433 1001.16,-390.561 990.574,-390.904 993.099,-397.433"/>
</g>
<!-- N20 -->
<g id="node21" class="node"><title>N20</title>
<ellipse fill="none" stroke="orange" cx="1069.98" cy="-522" rx="53.8905" ry="18"/>
<text text-anchor="middle" x="1069.98" y="-518.3" font-family="Times,serif" font-size="14.00">static&#45;buffer</text>
</g>
<!-- N2&#45;&gt;N20 -->
<g id="edge15" class="edge"><title>N2&#45;&gt;N20</title>
<path fill="none" stroke="black" stroke-dasharray="5,2" d="M935.168,-579.17C961.887,-568.037 999.592,-552.327 1028.34,-540.351"/>
<polygon fill="black" stroke="black" points="1029.83,-543.521 1037.71,-536.444 1027.13,-537.06 1029.83,-543.521"/>
</g>
<!-- N3&#45;&gt;N1 -->
<g id="edge16" class="edge"><title>N3&#45;&gt;N1</title>
<path fill="none" stroke="black" stroke-dasharray="5,2" d="M721.504,-577.116C711.409,-567.939 698.533,-556.233 687.34,-546.057"/>
<polygon fill="black" stroke="black" points="689.668,-543.444 679.914,-539.307 684.959,-548.624 689.668,-543.444"/>
</g>
<!-- N3&#45;&gt;N7 -->
<g id="edge17" class="edge"><title>N3&#45;&gt;N7</title>
<path fill="none" stroke="black" stroke-dasharray="5,2" d="M740.303,-575.871C742.178,-551.67 745.622,-507.211 747.854,-478.393"/>
<polygon fill="black" stroke="black" points="751.362,-478.43 748.645,-468.189 744.383,-477.889 751.362,-478.43"/>
</g>
<!-- N4&#45;&gt;N2 -->
<g id="edge18" class="edge"><title>N4&#45;&gt;N2</title>
<path fill="none" stroke="black" stroke-dasharray="5,2" d="M1037.98,-651.669C1011.55,-640.656 973.797,-624.925 944.77,-612.831"/>
<polygon fill="black" stroke="black" points="945.866,-609.496 935.289,-608.88 943.174,-615.957 945.866,-609.496"/>
</g>
<!-- N6 -->
<g id="node7" class="node"><title>N6</title>
<ellipse fill="none" stroke="black" cx="1109.98" cy="-306" rx="40.0939" ry="18"/>
<text text-anchor="middle" x="1109.98" y="-302.3" font-family="Times,serif" font-size="14.00">memchr</text>
</g>
<!-- N4&#45;&gt;N6 -->
<g id="edge19" class="edge"><title>N4&#45;&gt;N6</title>
<path fill="none" stroke="black" d="M1081.69,-648.199C1097.02,-625.089 1123.08,-581.611 1132.98,-540 1150.39,-466.751 1130.56,-377.52 1118.27,-333.782"/>
<polygon fill="black" stroke="black" points="1121.56,-332.553 1115.41,-323.925 1114.84,-334.505 1121.56,-332.553"/>
</g>
<!-- N4&#45;&gt;N7 -->
<g id="edge20" class="edge"><title>N4&#45;&gt;N7</title>
<path fill="none" stroke="black" stroke-dasharray="5,2" d="M1017.55,-665.372C966.132,-663.147 887.943,-652.553 834.976,-612 790.549,-577.985 766.92,-514.026 756.569,-477.801"/>
<polygon fill="black" stroke="black" points="759.889,-476.67 753.885,-467.94 753.134,-478.508 759.889,-476.67"/>
</g>
<!-- N4&#45;&gt;N9 -->
<g id="edge21" class="edge"><title>N4&#45;&gt;N9</title>
<path fill="none" stroke="black" stroke-dasharray="5,2" d="M1060.36,-647.997C1047.21,-624.3 1023.37,-579.769 1006.98,-540 998.539,-519.527 990.868,-495.635 985.537,-477.762"/>
<polygon fill="black" stroke="black" points="988.85,-476.62 982.681,-468.007 982.132,-478.587 988.85,-476.62"/>
</g>
<!-- N12 -->
<g id="node13" class="node"><title>N12</title>
<ellipse fill="none" stroke="black" cx="1215.98" cy="-162" rx="55.7903" ry="18"/>
<text text-anchor="middle" x="1215.98" y="-158.3" font-family="Times,serif" font-size="14.00">winapi&#45;build</text>
</g>
<!-- N4&#45;&gt;N12 -->
<g id="edge22" class="edge"><title>N4&#45;&gt;N12</title>
<path fill="none" stroke="black" d="M1115.17,-657.078C1180.08,-642.81 1291.98,-606.154 1291.98,-523 1291.98,-523 1291.98,-523 1291.98,-305 1291.98,-259.134 1260.77,-213.746 1238.36,-187.054"/>
<polygon fill="black" stroke="black" points="1240.91,-184.662 1231.72,-179.391 1235.62,-189.243 1240.91,-184.662"/>
</g>
<!-- N13 -->
<g id="node14" class="node"><title>N13</title>
<ellipse fill="none" stroke="orange" cx="1125.98" cy="-234" rx="27" ry="18"/>
<text text-anchor="middle" x="1125.98" y="-230.3" font-family="Times,serif" font-size="14.00">libc</text>
</g>
<!-- N4&#45;&gt;N13 -->
<g id="edge23" class="edge"><title>N4&#45;&gt;N13</title>
<path fill="none" stroke="black" stroke-dasharray="5,2" d="M1109,-654.09C1163.01,-636.328 1253.98,-595.632 1253.98,-523 1253.98,-523 1253.98,-523 1253.98,-377 1253.98,-318.712 1193.74,-273.57 1155.91,-250.968"/>
<polygon fill="black" stroke="black" points="1157.24,-247.691 1146.83,-245.713 1153.73,-253.75 1157.24,-247.691"/>
</g>
<!-- N4&#45;&gt;N18 -->
<g id="edge24" class="edge"><title>N4&#45;&gt;N18</title>
<path fill="none" stroke="black" stroke-dasharray="5,2" d="M1119.49,-660.163C1194.93,-649.763 1329.98,-617.893 1329.98,-523 1329.98,-523 1329.98,-523 1329.98,-161 1329.98,-44.9389 1145.45,-23.5444 1064.4,-19.745"/>
<polygon fill="black" stroke="black" points="1064.26,-16.237 1054.13,-19.3327 1063.98,-23.2313 1064.26,-16.237"/>
</g>
<!-- N4&#45;&gt;N20 -->
<g id="edge25" class="edge"><title>N4&#45;&gt;N20</title>
<path fill="none" stroke="black" stroke-dasharray="5,2" d="M1069.98,-647.871C1069.98,-623.67 1069.98,-579.211 1069.98,-550.393"/>
<polygon fill="black" stroke="black" points="1073.48,-550.189 1069.98,-540.189 1066.48,-550.189 1073.48,-550.189"/>
</g>
<!-- N5 -->
<g id="node6" class="node"><title>N5</title>
<ellipse fill="none" stroke="black" cx="915.976" cy="-378" rx="55.7903" ry="18"/>
<text text-anchor="middle" x="915.976" y="-374.3" font-family="Times,serif" font-size="14.00">aho&#45;corasick</text>
</g>
<!-- N5&#45;&gt;N6 -->
<g id="edge26" class="edge"><title>N5&#45;&gt;N6</title>
<path fill="none" stroke="black" d="M952.012,-363.998C985.422,-351.942 1035.06,-334.032 1069.75,-321.515"/>
<polygon fill="black" stroke="black" points="1071.34,-324.663 1079.55,-317.977 1068.96,-318.079 1071.34,-324.663"/>
</g>
<!-- N6&#45;&gt;N13 -->
<g id="edge27" class="edge"><title>N6&#45;&gt;N13</title>
<path fill="none" stroke="black" d="M1113.85,-288.055C1115.63,-280.261 1117.79,-270.822 1119.79,-262.079"/>
<polygon fill="black" stroke="black" points="1123.21,-262.804 1122.03,-252.275 1116.39,-261.244 1123.21,-262.804"/>
</g>
<!-- N7&#45;&gt;N5 -->
<g id="edge28" class="edge"><title>N7&#45;&gt;N5</title>
<path fill="none" stroke="black" d="M779.654,-436.485C805.879,-425.427 844.42,-409.174 873.837,-396.77"/>
<polygon fill="black" stroke="black" points="875.578,-399.834 883.432,-392.723 872.858,-393.384 875.578,-399.834"/>
</g>
<!-- N7&#45;&gt;N6 -->
<g id="edge29" class="edge"><title>N7&#45;&gt;N6</title>
<path fill="none" stroke="black" d="M768.969,-433.516C781.603,-423.096 798.477,-408.947 812.976,-396 830.33,-380.505 830.177,-370.421 850.976,-360 935.247,-317.777 968.63,-347.242 1059.98,-324 1063.32,-323.149 1066.76,-322.181 1070.2,-321.148"/>
<polygon fill="black" stroke="black" points="1071.32,-324.465 1079.8,-318.111 1069.21,-317.791 1071.32,-324.465"/>
</g>
<!-- N8 -->
<g id="node9" class="node"><title>N8</title>
<ellipse fill="none" stroke="black" cx="898.976" cy="-162" rx="34.394" ry="18"/>
<text text-anchor="middle" x="898.976" y="-158.3" font-family="Times,serif" font-size="14.00">winapi</text>
</g>
<!-- N7&#45;&gt;N8 -->
<g id="edge30" class="edge"><title>N7&#45;&gt;N8</title>
<path fill="none" stroke="black" d="M724.591,-435.152C710.694,-426.043 694.758,-412.716 686.976,-396 680.434,-381.946 676.445,-307.912 687.976,-288 724.907,-224.23 808.346,-189.552 858.526,-173.777"/>
<polygon fill="black" stroke="black" points="859.845,-177.035 868.398,-170.782 857.813,-170.336 859.845,-177.035"/>
</g>
<!-- N22 -->
<g id="node23" class="node"><title>N22</title>
<ellipse fill="none" stroke="black" cx="463.976" cy="-378" rx="55.7903" ry="18"/>
<text text-anchor="middle" x="463.976" y="-374.3" font-family="Times,serif" font-size="14.00">regex&#45;syntax</text>
</g>
<!-- N7&#45;&gt;N22 -->
<g id="edge31" class="edge"><title>N7&#45;&gt;N22</title>
<path fill="none" stroke="black" d="M712.38,-440.231C668.357,-429.905 593.273,-412.116 528.976,-396 524.659,-394.918 520.185,-393.781 515.697,-392.629"/>
<polygon fill="black" stroke="black" points="516.46,-389.211 505.903,-390.1 514.71,-395.989 516.46,-389.211"/>
</g>
<!-- N23 -->
<g id="node24" class="node"><title>N23</title>
<ellipse fill="none" stroke="black" cx="749.976" cy="-378" rx="53.8905" ry="18"/>
<text text-anchor="middle" x="749.976" y="-374.3" font-family="Times,serif" font-size="14.00">thread_local</text>
</g>
<!-- N7&#45;&gt;N23 -->
<g id="edge32" class="edge"><title>N7&#45;&gt;N23</title>
<path fill="none" stroke="black" d="M749.976,-431.697C749.976,-423.983 749.976,-414.712 749.976,-406.112"/>
<polygon fill="black" stroke="black" points="753.477,-406.104 749.976,-396.104 746.477,-406.104 753.477,-406.104"/>
</g>
<!-- N24 -->
<g id="node25" class="node"><title>N24</title>
<ellipse fill="none" stroke="black" cx="588.976" cy="-378" rx="50.8918" ry="18"/>
<text text-anchor="middle" x="588.976" y="-374.3" font-family="Times,serif" font-size="14.00">utf8&#45;ranges</text>
</g>
<!-- N7&#45;&gt;N24 -->
<g id="edge33" class="edge"><title>N7&#45;&gt;N24</title>
<path fill="none" stroke="black" d="M720.821,-436.324C695.175,-425.173 657.598,-408.836 629.115,-396.452"/>
<polygon fill="black" stroke="black" points="630.401,-393.194 619.835,-392.417 627.61,-399.614 630.401,-393.194"/>
</g>
<!-- N9&#45;&gt;N10 -->
<g id="edge34" class="edge"><title>N9&#45;&gt;N10</title>
<path fill="none" stroke="black" stroke-dasharray="5,2" d="M990.774,-432.411C997.431,-423.781 1005.7,-413.062 1013.08,-403.497"/>
<polygon fill="black" stroke="black" points="1015.93,-405.526 1019.27,-395.47 1010.39,-401.25 1015.93,-405.526"/>
</g>
<!-- N11 -->
<g id="node12" class="node"><title>N11</title>
<ellipse fill="none" stroke="black" cx="1022.98" cy="-234" rx="55.7903" ry="18"/>
<text text-anchor="middle" x="1022.98" y="-230.3" font-family="Times,serif" font-size="14.00">kernel32&#45;sys</text>
</g>
<!-- N11&#45;&gt;N8 -->
<g id="edge35" class="edge"><title>N11&#45;&gt;N8</title>
<path fill="none" stroke="black" d="M996.375,-217.983C977.121,-207.114 951.018,-192.378 930.681,-180.898"/>
<polygon fill="black" stroke="black" points="932.216,-177.745 921.788,-175.877 928.775,-183.841 932.216,-177.745"/>
</g>
<!-- N11&#45;&gt;N12 -->
<g id="edge36" class="edge"><title>N11&#45;&gt;N12</title>
<path fill="none" stroke="black" d="M1058.83,-219.998C1090.38,-208.554 1136.48,-191.835 1170.59,-179.461"/>
<polygon fill="black" stroke="black" points="1172.11,-182.633 1180.32,-175.933 1169.72,-176.052 1172.11,-182.633"/>
</g>
<!-- N14 -->
<g id="node15" class="node"><title>N14</title>
<ellipse fill="none" stroke="black" cx="1026.98" cy="-162" rx="75.2868" ry="18"/>
<text text-anchor="middle" x="1026.98" y="-158.3" font-family="Times,serif" font-size="14.00">pnacl&#45;build&#45;helper</text>
</g>
<!-- N13&#45;&gt;N14 -->
<g id="edge37" class="edge"><title>N13&#45;&gt;N14</title>
<path fill="none" stroke="black" d="M1107.82,-220.161C1093.94,-210.347 1074.47,-196.583 1058.12,-185.021"/>
<polygon fill="black" stroke="black" points="1060.08,-182.123 1049.9,-179.208 1056.04,-187.839 1060.08,-182.123"/>
</g>
<!-- N21 -->
<g id="node22" class="node"><title>N21</title>
<ellipse fill="none" stroke="black" cx="1026.98" cy="-90" rx="38.1938" ry="18"/>
<text text-anchor="middle" x="1026.98" y="-86.3" font-family="Times,serif" font-size="14.00">tempdir</text>
</g>
<!-- N14&#45;&gt;N21 -->
<g id="edge38" class="edge"><title>N14&#45;&gt;N21</title>
<path fill="none" stroke="black" d="M1026.98,-143.697C1026.98,-135.983 1026.98,-126.712 1026.98,-118.112"/>
<polygon fill="black" stroke="black" points="1030.48,-118.104 1026.98,-108.104 1023.48,-118.104 1030.48,-118.104"/>
</g>
<!-- N15&#45;&gt;N16 -->
<g id="edge39" class="edge"><title>N15&#45;&gt;N16</title>
<path fill="none" stroke="black" stroke-dasharray="5,2" d="M196.584,-433.116C207.41,-423.874 221.242,-412.066 233.222,-401.84"/>
<polygon fill="black" stroke="black" points="235.826,-404.218 241.159,-395.064 231.281,-398.894 235.826,-404.218"/>
</g>
<!-- N15&#45;&gt;N17 -->
<g id="edge40" class="edge"><title>N15&#45;&gt;N17</title>
<path fill="none" stroke="black" stroke-dasharray="5,2" d="M178.384,-431.729C179.541,-412.861 183.554,-382.348 196.976,-360 204.616,-347.281 216.418,-336.162 227.751,-327.438"/>
<polygon fill="black" stroke="black" points="229.844,-330.244 235.855,-321.519 225.715,-324.591 229.844,-330.244"/>
</g>
<!-- N15&#45;&gt;N18 -->
<g id="edge41" class="edge"><title>N15&#45;&gt;N18</title>
<path fill="none" stroke="black" stroke-dasharray="5,2" d="M129.576,-445.148C94.4439,-439.744 48.4379,-426.824 20.9764,-396 -5.92931,-365.8 1.97644,-347.447 1.97644,-307 1.97644,-307 1.97644,-307 1.97644,-161 1.97644,-59.1678 806.011,-26.3283 989.85,-20.1506"/>
<polygon fill="black" stroke="black" points="990.208,-23.6408 1000.09,-19.8128 989.977,-16.6446 990.208,-23.6408"/>
</g>
<!-- N19 -->
<g id="node20" class="node"><title>N19</title>
<ellipse fill="none" stroke="orange" cx="89.9764" cy="-378" rx="59.5901" ry="18"/>
<text text-anchor="middle" x="89.9764" y="-374.3" font-family="Times,serif" font-size="14.00">rustc&#45;serialize</text>
</g>
<!-- N15&#45;&gt;N19 -->
<g id="edge42" class="edge"><title>N15&#45;&gt;N19</title>
<path fill="none" stroke="black" stroke-dasharray="5,2" d="M158.008,-433.116C146.277,-423.785 131.259,-411.838 118.319,-401.545"/>
<polygon fill="black" stroke="black" points="120.175,-398.55 110.171,-395.064 115.818,-404.028 120.175,-398.55"/>
</g>
<!-- N16&#45;&gt;N17 -->
<g id="edge43" class="edge"><title>N16&#45;&gt;N17</title>
<path fill="none" stroke="black" stroke-dasharray="5,2" d="M259.976,-359.697C259.976,-351.983 259.976,-342.712 259.976,-334.112"/>
<polygon fill="black" stroke="black" points="263.477,-334.104 259.976,-324.104 256.477,-334.104 263.477,-334.104"/>
</g>
<!-- N18&#45;&gt;N13 -->
<g id="edge44" class="edge"><title>N18&#45;&gt;N13</title>
<path fill="none" stroke="black" stroke-dasharray="5,2" d="M1041.62,-33.4733C1051.48,-43.6866 1064.39,-57.9936 1073.98,-72 1094.29,-101.692 1099.63,-109.858 1110.98,-144 1117.68,-164.167 1121.49,-187.944 1123.59,-205.847"/>
<polygon fill="black" stroke="black" points="1120.12,-206.322 1124.66,-215.893 1127.08,-205.578 1120.12,-206.322"/>
</g>
<!-- N20&#45;&gt;N7 -->
<g id="edge45" class="edge"><title>N20&#45;&gt;N7</title>
<path fill="none" stroke="black" stroke-dasharray="5,2" d="M1026.15,-511.414C966.483,-498.361 860.043,-475.077 798.18,-461.544"/>
<polygon fill="black" stroke="black" points="798.795,-458.096 788.278,-459.378 797.299,-464.935 798.795,-458.096"/>
</g>
<!-- N20&#45;&gt;N8 -->
<g id="edge46" class="edge"><title>N20&#45;&gt;N8</title>
<path fill="none" stroke="black" d="M1078.08,-503.91C1091.85,-472.072 1115.35,-403.018 1082.98,-360 1048.21,-313.808 1000.28,-363.407 957.976,-324 919.779,-288.417 906.228,-226.038 901.481,-190.27"/>
<polygon fill="black" stroke="black" points="904.926,-189.601 900.273,-180.082 897.975,-190.425 904.926,-189.601"/>
</g>
<!-- N20&#45;&gt;N9 -->
<g id="edge47" class="edge"><title>N20&#45;&gt;N9</title>
<path fill="none" stroke="black" stroke-dasharray="5,2" d="M1049.1,-505.116C1036.63,-495.629 1020.61,-483.439 1006.93,-473.031"/>
<polygon fill="black" stroke="black" points="1008.85,-470.091 998.77,-466.821 1004.61,-475.662 1008.85,-470.091"/>
</g>
<!-- N20&#45;&gt;N10 -->
<g id="edge48" class="edge"><title>N20&#45;&gt;N10</title>
<path fill="none" stroke="black" stroke-dasharray="5,2" d="M1065.39,-503.871C1058.89,-479.564 1046.91,-434.819 1039.21,-406.013"/>
<polygon fill="black" stroke="black" points="1042.54,-404.945 1036.58,-396.189 1035.78,-406.754 1042.54,-404.945"/>
</g>
<!-- N20&#45;&gt;N12 -->
<g id="edge49" class="edge"><title>N20&#45;&gt;N12</title>
<path fill="none" stroke="black" d="M1095.92,-506.207C1110.32,-496.86 1127.57,-483.61 1138.98,-468 1202.55,-381.015 1213.87,-246.962 1215.72,-190.046"/>
<polygon fill="black" stroke="black" points="1219.22,-190.12 1215.97,-180.036 1212.22,-189.945 1219.22,-190.12"/>
</g>
<!-- N20&#45;&gt;N13 -->
<g id="edge50" class="edge"><title>N20&#45;&gt;N13</title>
<path fill="none" stroke="black" stroke-dasharray="5,2" d="M1087.34,-504.751C1096.97,-494.917 1108.47,-481.667 1115.98,-468 1148.14,-409.464 1149.32,-390.091 1158.98,-324 1161.29,-308.168 1163.37,-303.384 1158.98,-288 1155.98,-277.526 1150.25,-267.108 1144.4,-258.315"/>
<polygon fill="black" stroke="black" points="1147.23,-256.262 1138.6,-250.123 1141.52,-260.307 1147.23,-256.262"/>
</g>
<!-- N21&#45;&gt;N18 -->
<g id="edge51" class="edge"><title>N21&#45;&gt;N18</title>
<path fill="none" stroke="black" d="M1026.98,-71.6966C1026.98,-63.9827 1026.98,-54.7125 1026.98,-46.1124"/>
<polygon fill="black" stroke="black" points="1030.48,-46.1043 1026.98,-36.1043 1023.48,-46.1044 1030.48,-46.1043"/>
</g>
<!-- N25 -->
<g id="node26" class="node"><title>N25</title>
<ellipse fill="none" stroke="black" cx="1008.98" cy="-306" rx="42.4939" ry="18"/>
<text text-anchor="middle" x="1008.98" y="-302.3" font-family="Times,serif" font-size="14.00">thread&#45;id</text>
</g>
<!-- N23&#45;&gt;N25 -->
<g id="edge52" class="edge"><title>N23&#45;&gt;N25</title>
<path fill="none" stroke="black" d="M790.445,-366.062C837.697,-353.292 915.599,-332.237 964.505,-319.019"/>
<polygon fill="black" stroke="black" points="965.441,-322.392 974.181,-316.404 963.614,-315.635 965.441,-322.392"/>
</g>
<!-- N26 -->
<g id="node27" class="node"><title>N26</title>
<ellipse fill="none" stroke="black" cx="749.976" cy="-306" rx="53.0913" ry="18"/>
<text text-anchor="middle" x="749.976" y="-302.3" font-family="Times,serif" font-size="14.00">unreachable</text>
</g>
<!-- N23&#45;&gt;N26 -->
<g id="edge53" class="edge"><title>N23&#45;&gt;N26</title>
<path fill="none" stroke="black" d="M749.976,-359.697C749.976,-351.983 749.976,-342.712 749.976,-334.112"/>
<polygon fill="black" stroke="black" points="753.477,-334.104 749.976,-324.104 746.477,-334.104 753.477,-334.104"/>
</g>
<!-- N25&#45;&gt;N11 -->
<g id="edge54" class="edge"><title>N25&#45;&gt;N11</title>
<path fill="none" stroke="black" d="M1012.37,-288.055C1013.91,-280.346 1015.77,-271.027 1017.5,-262.364"/>
<polygon fill="black" stroke="black" points="1020.99,-262.768 1019.52,-252.275 1014.13,-261.395 1020.99,-262.768"/>
</g>
<!-- N25&#45;&gt;N13 -->
<g id="edge55" class="edge"><title>N25&#45;&gt;N13</title>
<path fill="none" stroke="black" d="M1032.37,-291.003C1051.22,-279.723 1077.8,-263.826 1097.81,-251.849"/>
<polygon fill="black" stroke="black" points="1099.71,-254.791 1106.5,-246.653 1096.12,-248.784 1099.71,-254.791"/>
</g>
</g>
</svg>
