<?xml version="1.0" encoding="UTF-8" standalone="no"?>
<!DOCTYPE svg PUBLIC "-//W3C//DTD SVG 1.1//EN"
 "http://www.w3.org/Graphics/SVG/1.1/DTD/svg11.dtd">
<!-- Generated by graphviz version 2.38.0 (20140413.2041)
 -->
<!-- Title: dependencies Pages: 1 -->
<svg width="1218pt" height="908pt"
 viewBox="0.00 0.00 1218.00 908.00" xmlns="http://www.w3.org/2000/svg" xmlns:xlink="http://www.w3.org/1999/xlink">
<g id="graph0" class="graph" transform="scale(1 1) rotate(0) translate(4 904)">
<title>dependencies</title>
<polygon fill="white" stroke="none" points="-4,4 -4,-904 1214,-904 1214,4 -4,4"/>
<!-- N0 -->
<g id="node1" class="node"><title>N0</title>
<ellipse fill="none" stroke="black" cx="464" cy="-882" rx="34.394" ry="18"/>
<text text-anchor="middle" x="464" y="-878.3" font-family="Times,serif" font-size="14.00">octavo</text>
</g>
<!-- N1 -->
<g id="node2" class="node"><title>N1</title>
<ellipse fill="none" stroke="black" cx="586" cy="-738" rx="59.5901" ry="18"/>
<text text-anchor="middle" x="586" y="-734.3" font-family="Times,serif" font-size="14.00">octavo&#45;crypto</text>
</g>
<!-- N0&#45;&gt;N1 -->
<g id="edge1" class="edge"><title>N0&#45;&gt;N1</title>
<path fill="none" stroke="black" d="M493.121,-872.027C514.853,-863.883 543.671,-849.771 561,-828 575.019,-810.388 581.181,-785.36 583.887,-766.328"/>
<polygon fill="black" stroke="black" points="587.387,-766.53 585.089,-756.188 580.436,-765.706 587.387,-766.53"/>
</g>
<!-- N2 -->
<g id="node3" class="node"><title>N2</title>
<ellipse fill="none" stroke="black" cx="424" cy="-522" rx="57.6901" ry="18"/>
<text text-anchor="middle" x="424" y="-518.3" font-family="Times,serif" font-size="14.00">octavo&#45;digest</text>
</g>
<!-- N0&#45;&gt;N2 -->
<g id="edge2" class="edge"><title>N0&#45;&gt;N2</title>
<path fill="none" stroke="black" d="M456.492,-864.338C445.418,-838.197 426,-785.702 426,-739 426,-739 426,-739 426,-665 426,-624.992 425.196,-578.65 424.608,-550.078"/>
<polygon fill="black" stroke="black" points="428.107,-549.972 424.395,-540.048 421.108,-550.12 428.107,-549.972"/>
</g>
<!-- N3 -->
<g id="node4" class="node"><title>N3</title>
<ellipse fill="none" stroke="black" cx="503" cy="-810" rx="48.9926" ry="18"/>
<text text-anchor="middle" x="503" y="-806.3" font-family="Times,serif" font-size="14.00">octavo&#45;kdf</text>
</g>
<!-- N0&#45;&gt;N3 -->
<g id="edge3" class="edge"><title>N0&#45;&gt;N3</title>
<path fill="none" stroke="black" d="M473.242,-864.411C477.838,-856.163 483.495,-846.009 488.639,-836.777"/>
<polygon fill="black" stroke="black" points="491.743,-838.395 493.553,-827.956 485.628,-834.988 491.743,-838.395"/>
</g>
<!-- N4 -->
<g id="node5" class="node"><title>N4</title>
<ellipse fill="none" stroke="black" cx="346" cy="-594" rx="51.9908" ry="18"/>
<text text-anchor="middle" x="346" y="-590.3" font-family="Times,serif" font-size="14.00">octavo&#45;mac</text>
</g>
<!-- N0&#45;&gt;N4 -->
<g id="edge4" class="edge"><title>N0&#45;&gt;N4</title>
<path fill="none" stroke="black" d="M445.735,-866.54C434.513,-856.76 420.672,-842.939 412,-828 372.626,-760.171 355.589,-667.474 349.244,-622.168"/>
<polygon fill="black" stroke="black" points="352.708,-621.672 347.917,-612.222 345.77,-622.597 352.708,-621.672"/>
</g>
<!-- N5 -->
<g id="node6" class="node"><title>N5</title>
<ellipse fill="none" stroke="black" cx="271" cy="-666" rx="44.393" ry="18"/>
<text text-anchor="middle" x="271" y="-662.3" font-family="Times,serif" font-size="14.00">byteorder</text>
</g>
<!-- N1&#45;&gt;N5 -->
<g id="edge5" class="edge"><title>N1&#45;&gt;N5</title>
<path fill="none" stroke="black" d="M539.521,-726.671C480.31,-713.513 378.505,-690.89 318.711,-677.602"/>
<polygon fill="black" stroke="black" points="319.293,-674.146 308.771,-675.394 317.774,-680.98 319.293,-674.146"/>
</g>
<!-- N7 -->
<g id="node8" class="node"><title>N7</title>
<ellipse fill="none" stroke="black" cx="520" cy="-378" rx="57.6901" ry="18"/>
<text text-anchor="middle" x="520" y="-374.3" font-family="Times,serif" font-size="14.00">generic&#45;array</text>
</g>
<!-- N1&#45;&gt;N7 -->
<g id="edge6" class="edge"><title>N1&#45;&gt;N7</title>
<path fill="none" stroke="black" d="M586,-719.951C586,-693.292 586,-640.115 586,-595 586,-595 586,-595 586,-521 586,-476.599 559.136,-431.055 539.686,-403.899"/>
<polygon fill="black" stroke="black" points="542.429,-401.721 533.675,-395.752 536.796,-405.877 542.429,-401.721"/>
</g>
<!-- N8 -->
<g id="node9" class="node"><title>N8</title>
<ellipse fill="none" stroke="black" cx="493" cy="-306" rx="42.4939" ry="18"/>
<text text-anchor="middle" x="493" y="-302.3" font-family="Times,serif" font-size="14.00">typenum</text>
</g>
<!-- N1&#45;&gt;N8 -->
<g id="edge7" class="edge"><title>N1&#45;&gt;N8</title>
<path fill="none" stroke="black" d="M593.69,-719.907C604.794,-693.623 624,-641.447 624,-595 624,-595 624,-595 624,-449 624,-406.162 615.429,-392.044 587,-360 572.495,-343.65 551.688,-331.195 533.336,-322.481"/>
<polygon fill="black" stroke="black" points="534.563,-319.194 524.009,-318.264 531.679,-325.573 534.563,-319.194"/>
</g>
<!-- N13 -->
<g id="node14" class="node"><title>N13</title>
<ellipse fill="none" stroke="black" cx="947" cy="-666" rx="27" ry="18"/>
<text text-anchor="middle" x="947" y="-662.3" font-family="Times,serif" font-size="14.00">num</text>
</g>
<!-- N1&#45;&gt;N13 -->
<g id="edge8" class="edge"><title>N1&#45;&gt;N13</title>
<path fill="none" stroke="black" d="M635.062,-727.487C708.656,-713.216 845.919,-686.6 910.996,-673.981"/>
<polygon fill="black" stroke="black" points="912.019,-677.348 921.17,-672.009 910.686,-670.476 912.019,-677.348"/>
</g>
<!-- N20 -->
<g id="node21" class="node"><title>N20</title>
<ellipse fill="none" stroke="black" cx="662" cy="-162" rx="27" ry="18"/>
<text text-anchor="middle" x="662" y="-158.3" font-family="Times,serif" font-size="14.00">rand</text>
</g>
<!-- N1&#45;&gt;N20 -->
<g id="edge9" class="edge"><title>N1&#45;&gt;N20</title>
<path fill="none" stroke="black" d="M645.549,-736.031C801.521,-731.89 1210,-710.061 1210,-595 1210,-595 1210,-595 1210,-305 1210,-199.236 822.658,-170.941 699.275,-164.61"/>
<polygon fill="black" stroke="black" points="699.336,-161.109 689.175,-164.111 698.991,-168.101 699.336,-161.109"/>
</g>
<!-- N2&#45;&gt;N5 -->
<g id="edge10" class="edge"><title>N2&#45;&gt;N5</title>
<path fill="none" stroke="black" d="M371.84,-529.848C341.932,-536.559 306.226,-549.82 285,-576 271.101,-593.143 268.27,-618.424 268.529,-637.665"/>
<polygon fill="black" stroke="black" points="265.043,-638.072 268.959,-647.916 272.037,-637.778 265.043,-638.072"/>
</g>
<!-- N2&#45;&gt;N7 -->
<g id="edge11" class="edge"><title>N2&#45;&gt;N7</title>
<path fill="none" stroke="black" d="M435.389,-504.153C452.133,-479.386 483.51,-432.974 502.991,-404.159"/>
<polygon fill="black" stroke="black" points="505.924,-406.07 508.625,-395.825 500.125,-402.149 505.924,-406.07"/>
</g>
<!-- N2&#45;&gt;N8 -->
<g id="edge12" class="edge"><title>N2&#45;&gt;N8</title>
<path fill="none" stroke="black" d="M424.499,-503.794C425.933,-473.497 431.487,-409.179 453,-360 457.551,-349.595 464.524,-339.35 471.379,-330.682"/>
<polygon fill="black" stroke="black" points="474.143,-332.832 477.834,-322.901 468.755,-328.363 474.143,-332.832"/>
</g>
<!-- N22 -->
<g id="node23" class="node"><title>N22</title>
<ellipse fill="none" stroke="black" cx="314" cy="-450" rx="53.8905" ry="18"/>
<text text-anchor="middle" x="314" y="-446.3" font-family="Times,serif" font-size="14.00">static&#45;buffer</text>
</g>
<!-- N2&#45;&gt;N22 -->
<g id="edge13" class="edge"><title>N2&#45;&gt;N22</title>
<path fill="none" stroke="black" d="M399.86,-505.638C384.242,-495.699 363.715,-482.637 346.649,-471.776"/>
<polygon fill="black" stroke="black" points="348.399,-468.742 338.084,-466.326 344.641,-474.648 348.399,-468.742"/>
</g>
<!-- N3&#45;&gt;N1 -->
<g id="edge14" class="edge"><title>N3&#45;&gt;N1</title>
<path fill="none" stroke="black" d="M521.834,-793.116C532.898,-783.785 547.063,-771.838 559.268,-761.545"/>
<polygon fill="black" stroke="black" points="561.565,-764.186 566.953,-755.064 557.052,-758.835 561.565,-764.186"/>
</g>
<!-- N3&#45;&gt;N5 -->
<g id="edge15" class="edge"><title>N3&#45;&gt;N5</title>
<path fill="none" stroke="black" d="M478.61,-794.072C436.423,-768.25 349.851,-715.262 302.928,-686.542"/>
<polygon fill="black" stroke="black" points="304.729,-683.541 294.373,-681.306 301.075,-689.511 304.729,-683.541"/>
</g>
<!-- N4&#45;&gt;N2 -->
<g id="edge16" class="edge"><title>N4&#45;&gt;N2</title>
<path fill="none" stroke="black" d="M364.091,-576.765C374.329,-567.576 387.297,-555.938 398.548,-545.842"/>
<polygon fill="black" stroke="black" points="400.903,-548.431 406.007,-539.147 396.227,-543.222 400.903,-548.431"/>
</g>
<!-- N4&#45;&gt;N5 -->
<g id="edge17" class="edge"><title>N4&#45;&gt;N5</title>
<path fill="none" stroke="black" d="M333.873,-611.789C324.72,-621.285 312.031,-633.259 300.383,-643.443"/>
<polygon fill="black" stroke="black" points="297.863,-640.993 292.542,-650.155 302.415,-646.311 297.863,-640.993"/>
</g>
<!-- N4&#45;&gt;N7 -->
<g id="edge18" class="edge"><title>N4&#45;&gt;N7</title>
<path fill="none" stroke="black" d="M394.846,-587.641C426.917,-581.496 467.192,-568.307 491,-540 522.809,-502.18 524.775,-441.394 522.771,-406.333"/>
<polygon fill="black" stroke="black" points="526.26,-406.054 522.05,-396.331 519.278,-406.557 526.26,-406.054"/>
</g>
<!-- N10 -->
<g id="node11" class="node"><title>N10</title>
<ellipse fill="none" stroke="black" cx="358" cy="-18" rx="55.7903" ry="18"/>
<text text-anchor="middle" x="358" y="-14.3" font-family="Times,serif" font-size="14.00">winapi&#45;build</text>
</g>
<!-- N4&#45;&gt;N10 -->
<g id="edge19" class="edge"><title>N4&#45;&gt;N10</title>
<path fill="none" stroke="black" d="M346.187,-575.85C346.827,-557.612 349.137,-528.128 357,-504 362.671,-486.597 370.574,-485.138 377,-468 391.2,-430.128 396,-419.447 396,-379 396,-379 396,-379 396,-161 396,-119.633 380.765,-73.7216 369.588,-45.6051"/>
<polygon fill="black" stroke="black" points="372.721,-44.0187 365.69,-36.0929 366.244,-46.6733 372.721,-44.0187"/>
</g>
<!-- N11 -->
<g id="node12" class="node"><title>N11</title>
<ellipse fill="none" stroke="black" cx="265" cy="-378" rx="27" ry="18"/>
<text text-anchor="middle" x="265" y="-374.3" font-family="Times,serif" font-size="14.00">libc</text>
</g>
<!-- N4&#45;&gt;N11 -->
<g id="edge20" class="edge"><title>N4&#45;&gt;N11</title>
<path fill="none" stroke="black" d="M328.06,-576.953C305.03,-555.019 266.228,-513.205 251,-468 244.08,-447.459 248.754,-423.078 254.498,-405.033"/>
<polygon fill="black" stroke="black" points="257.844,-406.066 257.827,-395.471 251.233,-403.764 257.844,-406.066"/>
</g>
<!-- N4&#45;&gt;N20 -->
<g id="edge21" class="edge"><title>N4&#45;&gt;N20</title>
<path fill="none" stroke="black" d="M390.605,-584.497C477.71,-565.029 662,-508.534 662,-379 662,-379 662,-379 662,-305 662,-264.996 662,-218.653 662,-190.08"/>
<polygon fill="black" stroke="black" points="665.5,-190.049 662,-180.049 658.5,-190.049 665.5,-190.049"/>
</g>
<!-- N4&#45;&gt;N22 -->
<g id="edge22" class="edge"><title>N4&#45;&gt;N22</title>
<path fill="none" stroke="black" d="M337.611,-576.235C332.86,-566.012 327.238,-552.54 324,-540 318.761,-519.708 316.266,-496.111 315.079,-478.315"/>
<polygon fill="black" stroke="black" points="318.573,-478.106 314.508,-468.322 311.584,-478.505 318.573,-478.106"/>
</g>
<!-- N5&#45;&gt;N4 -->
<g id="edge23" class="edge"><title>N5&#45;&gt;N4</title>
<path fill="none" stroke="black" d="M282.934,-648.411C291.911,-639.082 304.357,-627.313 315.884,-617.199"/>
<polygon fill="black" stroke="black" points="318.362,-619.684 323.664,-610.511 313.799,-614.375 318.362,-619.684"/>
</g>
<!-- N6 -->
<g id="node7" class="node"><title>N6</title>
<ellipse fill="none" stroke="black" cx="38" cy="-18" rx="34.394" ry="18"/>
<text text-anchor="middle" x="38" y="-14.3" font-family="Times,serif" font-size="14.00">winapi</text>
</g>
<!-- N5&#45;&gt;N6 -->
<g id="edge24" class="edge"><title>N5&#45;&gt;N6</title>
<path fill="none" stroke="black" d="M227.76,-661.839C151.249,-653.64 0,-624.585 0,-523 0,-523 0,-523 0,-161 0,-119.406 15.4027,-73.217 26.5955,-45.1433"/>
<polygon fill="black" stroke="black" points="29.9281,-46.2418 30.4924,-35.662 23.4536,-43.5807 29.9281,-46.2418"/>
</g>
<!-- N23 -->
<g id="node24" class="node"><title>N23</title>
<ellipse fill="none" stroke="black" cx="179" cy="-234" rx="38.1938" ry="18"/>
<text text-anchor="middle" x="179" y="-230.3" font-family="Times,serif" font-size="14.00">tempdir</text>
</g>
<!-- N5&#45;&gt;N23 -->
<g id="edge25" class="edge"><title>N5&#45;&gt;N23</title>
<path fill="none" stroke="black" d="M233.863,-656.039C177.286,-639.918 76,-600.267 76,-523 76,-523 76,-523 76,-377 76,-336.553 71.8582,-321.172 95,-288 106.404,-271.652 124.636,-259.262 141.205,-250.588"/>
<polygon fill="black" stroke="black" points="142.77,-253.719 150.184,-246.15 139.669,-247.443 142.77,-253.719"/>
</g>
<!-- N7&#45;&gt;N8 -->
<g id="edge26" class="edge"><title>N7&#45;&gt;N8</title>
<path fill="none" stroke="black" d="M513.464,-360.055C510.38,-352.059 506.628,-342.331 503.183,-333.4"/>
<polygon fill="black" stroke="black" points="506.34,-331.859 499.476,-323.789 499.809,-334.379 506.34,-331.859"/>
</g>
<!-- N9 -->
<g id="node10" class="node"><title>N9</title>
<ellipse fill="none" stroke="black" cx="274" cy="-90" rx="55.7903" ry="18"/>
<text text-anchor="middle" x="274" y="-86.3" font-family="Times,serif" font-size="14.00">kernel32&#45;sys</text>
</g>
<!-- N9&#45;&gt;N6 -->
<g id="edge27" class="edge"><title>N9&#45;&gt;N6</title>
<path fill="none" stroke="black" d="M234.233,-77.2046C190.359,-64.1913 120.225,-43.3887 76.7588,-30.4963"/>
<polygon fill="black" stroke="black" points="77.6945,-27.1231 67.112,-27.6349 75.7038,-33.8341 77.6945,-27.1231"/>
</g>
<!-- N9&#45;&gt;N10 -->
<g id="edge28" class="edge"><title>N9&#45;&gt;N10</title>
<path fill="none" stroke="black" d="M293.482,-72.7646C304.614,-63.488 318.743,-51.7144 330.939,-41.5511"/>
<polygon fill="black" stroke="black" points="333.182,-44.238 338.623,-35.1473 328.7,-38.8604 333.182,-44.238"/>
</g>
<!-- N12 -->
<g id="node13" class="node"><title>N12</title>
<ellipse fill="none" stroke="black" cx="179" cy="-306" rx="75.2868" ry="18"/>
<text text-anchor="middle" x="179" y="-302.3" font-family="Times,serif" font-size="14.00">pnacl&#45;build&#45;helper</text>
</g>
<!-- N11&#45;&gt;N12 -->
<g id="edge29" class="edge"><title>N11&#45;&gt;N12</title>
<path fill="none" stroke="black" d="M248.418,-363.503C236.777,-354.028 220.918,-341.12 207.297,-330.033"/>
<polygon fill="black" stroke="black" points="209.128,-327.01 199.163,-323.412 204.709,-332.439 209.128,-327.01"/>
</g>
<!-- N12&#45;&gt;N23 -->
<g id="edge30" class="edge"><title>N12&#45;&gt;N23</title>
<path fill="none" stroke="black" d="M179,-287.697C179,-279.983 179,-270.712 179,-262.112"/>
<polygon fill="black" stroke="black" points="182.5,-262.104 179,-252.104 175.5,-262.104 182.5,-262.104"/>
</g>
<!-- N14 -->
<g id="node15" class="node"><title>N14</title>
<ellipse fill="none" stroke="black" cx="878" cy="-522" rx="50.0912" ry="18"/>
<text text-anchor="middle" x="878" y="-518.3" font-family="Times,serif" font-size="14.00">num&#45;bigint</text>
</g>
<!-- N13&#45;&gt;N14 -->
<g id="edge31" class="edge"><title>N13&#45;&gt;N14</title>
<path fill="none" stroke="black" d="M925.914,-654.496C910.443,-645.528 890.535,-631.056 881,-612 871.458,-592.93 871.327,-568.573 873.236,-550.163"/>
<polygon fill="black" stroke="black" points="876.727,-550.462 874.541,-540.095 869.785,-549.562 876.727,-550.462"/>
</g>
<!-- N15 -->
<g id="node16" class="node"><title>N15</title>
<ellipse fill="none" stroke="black" cx="712" cy="-522" rx="60.3893" ry="18"/>
<text text-anchor="middle" x="712" y="-518.3" font-family="Times,serif" font-size="14.00">num&#45;complex</text>
</g>
<!-- N13&#45;&gt;N15 -->
<g id="edge32" class="edge"><title>N13&#45;&gt;N15</title>
<path fill="none" stroke="black" d="M927.368,-653.137C887.49,-629.041 796.56,-574.096 746.549,-543.877"/>
<polygon fill="black" stroke="black" points="748.078,-540.711 737.709,-538.535 744.458,-546.702 748.078,-540.711"/>
</g>
<!-- N16 -->
<g id="node17" class="node"><title>N16</title>
<ellipse fill="none" stroke="black" cx="1038" cy="-450" rx="53.8905" ry="18"/>
<text text-anchor="middle" x="1038" y="-446.3" font-family="Times,serif" font-size="14.00">num&#45;integer</text>
</g>
<!-- N13&#45;&gt;N16 -->
<g id="edge33" class="edge"><title>N13&#45;&gt;N16</title>
<path fill="none" stroke="black" d="M967.45,-654.153C982.578,-645.001 1002.34,-630.448 1013,-612 1037.27,-570.014 1040.25,-512.055 1039.56,-478.348"/>
<polygon fill="black" stroke="black" points="1043.06,-478.188 1039.24,-468.308 1036.06,-478.417 1043.06,-478.188"/>
</g>
<!-- N17 -->
<g id="node18" class="node"><title>N17</title>
<ellipse fill="none" stroke="black" cx="1102" cy="-522" rx="41.6928" ry="18"/>
<text text-anchor="middle" x="1102" y="-518.3" font-family="Times,serif" font-size="14.00">num&#45;iter</text>
</g>
<!-- N13&#45;&gt;N17 -->
<g id="edge34" class="edge"><title>N13&#45;&gt;N17</title>
<path fill="none" stroke="black" d="M970.334,-656.55C991.858,-647.883 1023.75,-632.739 1046,-612 1065.19,-594.109 1080.48,-568.256 1090.21,-549.019"/>
<polygon fill="black" stroke="black" points="1093.41,-550.428 1094.65,-539.906 1087.12,-547.361 1093.41,-550.428"/>
</g>
<!-- N18 -->
<g id="node19" class="node"><title>N18</title>
<ellipse fill="none" stroke="black" cx="947" cy="-594" rx="56.59" ry="18"/>
<text text-anchor="middle" x="947" y="-590.3" font-family="Times,serif" font-size="14.00">num&#45;rational</text>
</g>
<!-- N13&#45;&gt;N18 -->
<g id="edge35" class="edge"><title>N13&#45;&gt;N18</title>
<path fill="none" stroke="black" d="M947,-647.697C947,-639.983 947,-630.712 947,-622.112"/>
<polygon fill="black" stroke="black" points="950.5,-622.104 947,-612.104 943.5,-622.104 950.5,-622.104"/>
</g>
<!-- N19 -->
<g id="node20" class="node"><title>N19</title>
<ellipse fill="none" stroke="black" cx="997" cy="-378" rx="47.3916" ry="18"/>
<text text-anchor="middle" x="997" y="-374.3" font-family="Times,serif" font-size="14.00">num&#45;traits</text>
</g>
<!-- N13&#45;&gt;N19 -->
<g id="edge36" class="edge"><title>N13&#45;&gt;N19</title>
<path fill="none" stroke="black" d="M972.404,-659.453C1019.98,-647.449 1120.62,-613.96 1153,-540 1173.13,-494.023 1155.89,-467.081 1120,-432 1099.74,-412.2 1070.91,-399.242 1046.25,-391.099"/>
<polygon fill="black" stroke="black" points="1047.27,-387.75 1036.68,-388.105 1045.18,-394.431 1047.27,-387.75"/>
</g>
<!-- N14&#45;&gt;N16 -->
<g id="edge37" class="edge"><title>N14&#45;&gt;N16</title>
<path fill="none" stroke="black" d="M908.471,-507.669C933.614,-496.669 969.518,-480.961 997.151,-468.872"/>
<polygon fill="black" stroke="black" points="998.79,-471.975 1006.55,-464.76 995.984,-465.562 998.79,-471.975"/>
</g>
<!-- N14&#45;&gt;N19 -->
<g id="edge38" class="edge"><title>N14&#45;&gt;N19</title>
<path fill="none" stroke="black" d="M888.719,-504.256C900.799,-485.849 921.444,-455.739 942,-432 951.11,-421.48 961.994,-410.678 971.666,-401.594"/>
<polygon fill="black" stroke="black" points="974.14,-404.073 979.106,-394.715 969.387,-398.934 974.14,-404.073"/>
</g>
<!-- N14&#45;&gt;N20 -->
<g id="edge39" class="edge"><title>N14&#45;&gt;N20</title>
<path fill="none" stroke="black" d="M878.395,-503.952C878.978,-477.294 880,-424.119 880,-379 880,-379 880,-379 880,-305 880,-219.177 759.907,-182.527 697.991,-169.334"/>
<polygon fill="black" stroke="black" points="698.36,-165.838 687.864,-167.275 696.966,-172.697 698.36,-165.838"/>
</g>
<!-- N21 -->
<g id="node22" class="node"><title>N21</title>
<ellipse fill="none" stroke="black" cx="792" cy="-450" rx="59.5901" ry="18"/>
<text text-anchor="middle" x="792" y="-446.3" font-family="Times,serif" font-size="14.00">rustc&#45;serialize</text>
</g>
<!-- N14&#45;&gt;N21 -->
<g id="edge40" class="edge"><title>N14&#45;&gt;N21</title>
<path fill="none" stroke="black" d="M858.485,-505.116C847.021,-495.785 832.344,-483.838 819.698,-473.545"/>
<polygon fill="black" stroke="black" points="821.7,-470.662 811.735,-467.064 817.281,-476.091 821.7,-470.662"/>
</g>
<!-- N15&#45;&gt;N19 -->
<g id="edge41" class="edge"><title>N15&#45;&gt;N19</title>
<path fill="none" stroke="black" d="M708.725,-503.812C705.998,-483.856 705.039,-451.228 723,-432 751.844,-401.122 868.579,-387.717 940.048,-382.309"/>
<polygon fill="black" stroke="black" points="940.529,-385.783 950.249,-381.568 940.021,-378.802 940.529,-385.783"/>
</g>
<!-- N15&#45;&gt;N21 -->
<g id="edge42" class="edge"><title>N15&#45;&gt;N21</title>
<path fill="none" stroke="black" d="M730.555,-504.765C741.056,-495.576 754.356,-483.938 765.895,-473.842"/>
<polygon fill="black" stroke="black" points="768.325,-476.366 773.546,-467.147 763.715,-471.098 768.325,-476.366"/>
</g>
<!-- N16&#45;&gt;N19 -->
<g id="edge43" class="edge"><title>N16&#45;&gt;N19</title>
<path fill="none" stroke="black" d="M1028.08,-432.055C1023.24,-423.801 1017.33,-413.701 1011.96,-404.538"/>
<polygon fill="black" stroke="black" points="1014.91,-402.649 1006.83,-395.789 1008.87,-406.187 1014.91,-402.649"/>
</g>
<!-- N17&#45;&gt;N16 -->
<g id="edge44" class="edge"><title>N17&#45;&gt;N16</title>
<path fill="none" stroke="black" d="M1087.48,-505.116C1079.33,-496.204 1069,-484.906 1059.89,-474.942"/>
<polygon fill="black" stroke="black" points="1062.24,-472.326 1052.91,-467.307 1057.07,-477.049 1062.24,-472.326"/>
</g>
<!-- N17&#45;&gt;N19 -->
<g id="edge45" class="edge"><title>N17&#45;&gt;N19</title>
<path fill="none" stroke="black" d="M1106.73,-503.816C1110.93,-484.747 1114.52,-453.796 1101,-432 1088.78,-412.304 1066.72,-399.627 1046.05,-391.63"/>
<polygon fill="black" stroke="black" points="1046.97,-388.244 1036.37,-388.173 1044.61,-394.835 1046.97,-388.244"/>
</g>
<!-- N18&#45;&gt;N14 -->
<g id="edge46" class="edge"><title>N18&#45;&gt;N14</title>
<path fill="none" stroke="black" d="M930.648,-576.411C921.883,-567.519 910.933,-556.411 901.293,-546.631"/>
<polygon fill="black" stroke="black" points="903.747,-544.135 894.235,-539.47 898.762,-549.049 903.747,-544.135"/>
</g>
<!-- N18&#45;&gt;N16 -->
<g id="edge47" class="edge"><title>N18&#45;&gt;N16</title>
<path fill="none" stroke="black" d="M957.796,-576.153C973.6,-551.493 1003.15,-505.374 1021.64,-476.533"/>
<polygon fill="black" stroke="black" points="1024.77,-478.133 1027.22,-467.825 1018.88,-474.356 1024.77,-478.133"/>
</g>
<!-- N18&#45;&gt;N19 -->
<g id="edge48" class="edge"><title>N18&#45;&gt;N19</title>
<path fill="none" stroke="black" d="M948.727,-575.797C951.992,-546.038 960.115,-483.218 975,-432 977.598,-423.061 981.23,-413.587 984.796,-405.159"/>
<polygon fill="black" stroke="black" points="988.071,-406.404 988.884,-395.841 981.661,-403.591 988.071,-406.404"/>
</g>
<!-- N18&#45;&gt;N21 -->
<g id="edge49" class="edge"><title>N18&#45;&gt;N21</title>
<path fill="none" stroke="black" d="M899.761,-583.957C872.679,-576.471 840,-563.166 819,-540 803.628,-523.042 797.001,-497.577 794.148,-478.225"/>
<polygon fill="black" stroke="black" points="797.609,-477.695 792.92,-468.195 790.661,-478.546 797.609,-477.695"/>
</g>
<!-- N20&#45;&gt;N11 -->
<g id="edge50" class="edge"><title>N20&#45;&gt;N11</title>
<path fill="none" stroke="black" d="M641.376,-174.117C575.739,-209.499 371.507,-319.588 294.65,-361.017"/>
<polygon fill="black" stroke="black" points="292.65,-358.119 285.508,-365.945 295.972,-364.281 292.65,-358.119"/>
</g>
<!-- N22&#45;&gt;N5 -->
<g id="edge51" class="edge"><title>N22&#45;&gt;N5</title>
<path fill="none" stroke="black" d="M305.432,-467.83C293.998,-491.326 274.34,-535.625 267,-576 264.138,-591.742 266.398,-596.011 267,-612 267.314,-620.335 267.905,-629.392 268.538,-637.621"/>
<polygon fill="black" stroke="black" points="265.07,-638.152 269.375,-647.833 272.047,-637.58 265.07,-638.152"/>
</g>
<!-- N22&#45;&gt;N6 -->
<g id="edge52" class="edge"><title>N22&#45;&gt;N6</title>
<path fill="none" stroke="black" d="M261.762,-445.259C181.747,-436.373 38,-406.556 38,-307 38,-307 38,-307 38,-161 38,-120.996 38,-74.6528 38,-46.0798"/>
<polygon fill="black" stroke="black" points="41.5001,-46.0492 38,-36.0493 34.5001,-46.0493 41.5001,-46.0492"/>
</g>
<!-- N22&#45;&gt;N7 -->
<g id="edge53" class="edge"><title>N22&#45;&gt;N7</title>
<path fill="none" stroke="black" d="M350.354,-436.647C384.39,-425.081 435.44,-407.734 472.647,-395.091"/>
<polygon fill="black" stroke="black" points="473.926,-398.353 482.268,-391.822 471.674,-391.725 473.926,-398.353"/>
</g>
<!-- N22&#45;&gt;N8 -->
<g id="edge54" class="edge"><title>N22&#45;&gt;N8</title>
<path fill="none" stroke="black" d="M332.437,-432.84C353.329,-414.689 388.567,-384.557 420,-360 434.072,-349.006 450.091,-337.291 463.531,-327.678"/>
<polygon fill="black" stroke="black" points="465.823,-330.343 471.943,-321.694 461.766,-324.639 465.823,-330.343"/>
</g>
<!-- N22&#45;&gt;N10 -->
<g id="edge55" class="edge"><title>N22&#45;&gt;N10</title>
<path fill="none" stroke="black" d="M319.934,-432.046C331.944,-396.168 358,-309.722 358,-235 358,-235 358,-235 358,-161 358,-120.996 358,-74.6528 358,-46.0798"/>
<polygon fill="black" stroke="black" points="361.5,-46.0492 358,-36.0493 354.5,-46.0493 361.5,-46.0492"/>
</g>
<!-- N22&#45;&gt;N11 -->
<g id="edge56" class="edge"><title>N22&#45;&gt;N11</title>
<path fill="none" stroke="black" d="M302.388,-432.411C296.234,-423.62 288.564,-412.663 281.775,-402.965"/>
<polygon fill="black" stroke="black" points="284.46,-400.696 275.858,-394.511 278.725,-404.71 284.46,-400.696"/>
</g>
<!-- N23&#45;&gt;N20 -->
<g id="edge57" class="edge"><title>N23&#45;&gt;N20</title>
<path fill="none" stroke="black" d="M215.304,-227.739C304.993,-214.74 536.244,-181.226 625.812,-168.245"/>
<polygon fill="black" stroke="black" points="626.372,-171.7 635.767,-166.802 625.368,-164.772 626.372,-171.7"/>
</g>
<!-- N24 -->
<g id="node25" class="node"><title>N24</title>
<ellipse fill="none" stroke="black" cx="278" cy="-162" rx="42.4939" ry="18"/>
<text text-anchor="middle" x="278" y="-158.3" font-family="Times,serif" font-size="14.00">thread&#45;id</text>
</g>
<!-- N23&#45;&gt;N24 -->
<g id="edge58" class="edge"><title>N23&#45;&gt;N24</title>
<path fill="none" stroke="black" d="M199.513,-218.496C213.753,-208.427 232.936,-194.864 248.772,-183.666"/>
<polygon fill="black" stroke="black" points="251.028,-186.357 257.173,-177.726 246.987,-180.642 251.028,-186.357"/>
</g>
<!-- N25 -->
<g id="node26" class="node"><title>N25</title>
<ellipse fill="none" stroke="black" cx="164" cy="-162" rx="53.0913" ry="18"/>
<text text-anchor="middle" x="164" y="-158.3" font-family="Times,serif" font-size="14.00">unreachable</text>
</g>
<!-- N23&#45;&gt;N25 -->
<g id="edge59" class="edge"><title>N23&#45;&gt;N25</title>
<path fill="none" stroke="black" d="M175.369,-216.055C173.699,-208.261 171.676,-198.822 169.803,-190.079"/>
<polygon fill="black" stroke="black" points="173.22,-189.32 167.702,-180.275 166.375,-190.787 173.22,-189.32"/>
</g>
<!-- N24&#45;&gt;N9 -->
<g id="edge60" class="edge"><title>N24&#45;&gt;N9</title>
<path fill="none" stroke="black" d="M277.011,-143.697C276.57,-135.983 276.041,-126.712 275.549,-118.112"/>
<polygon fill="black" stroke="black" points="279.042,-117.888 274.977,-108.104 272.054,-118.288 279.042,-117.888"/>
</g>
<!-- N24&#45;&gt;N11 -->
<g id="edge61" class="edge"><title>N24&#45;&gt;N11</title>
<path fill="none" stroke="black" d="M276.953,-180.232C274.7,-217.324 269.375,-304.981 266.658,-349.712"/>
<polygon fill="black" stroke="black" points="263.155,-349.655 266.042,-359.849 270.142,-350.08 263.155,-349.655"/>
</g>
</g>
</svg>
